{"title":"ELF THE MOVIE-2003 IN H.264 BY WINKER","uid":5138573,"size":840252117,"categoryP":"video","categoryS":"movies","magnet":"?xt=urn:btih:2717b13a5ffeabd0c825ad827f445c9eb7135e5a&amp;dn=ELF+THE+MOVIE-2003+IN+H.264+BY+WINKER&amp;tr=udp%3A%2F%2Ftracker.openbittorrent.com%3A80&amp;tr=udp%3A%2F%2Fopen.demonii.com%3A1337&amp;tr=udp%3A%2F%2Ftracker.coppersurfer.tk%3A6969&amp;tr=udp%3A%2F%2Fexodus.desync.com%3A6969","seeders":5,"leechers":0,"uploader":"alanwatson","files":-1,"time":1256707994,"description":" &lt;a href=&quot;http://www.imdb.com/title/tt0319343/&quot; rel=&quot;nofollow&quot; target=&quot;_NEW&quot;&gt;http://www.imdb.com/title/tt0319343/&lt;/a&gt;\n\n\nSynopsis\nWill Ferrell makes yet another memorable splash on the big screen in Jon Favreau's sweet and hilarious Christmas fable. Ferrell is Buddy, an innocent figure who was raised as an elf in the North Pole by his adoptive father, Papa Elf (Bob Newhart). When Buddy discovers that he's actually a human being, he heads to New York City to reunite with his biological father. The trouble is that his dad, Walter (James Caan), is a publishing executive who doesn't have time for anything other than work. Buddy moves in with Walter and his family, and proceeds to teach them a lesson or two about what being a family really means. Meanwhile, he also falls head over heels in love with the incredibly cute department store clerk, Jovie (Zooey Deschanel). By the time Christmas Eve rolls around, the general lack of spirit in the air threatens to ground Santa for the big night. He must rely on Buddy's expertise and overall enthusiasm to ensure that Christmas will be saved once again. Favreau's film is family entertainment at its finest, featuring a performance by Ferrell that is at once innocent, tender, and laugh-out-loud funny. A stellar supporting cast--including Caan, Deschanel, Newhart, and Faizon Love--adds to the film's already overabundant charm.\n\nFormat : MPEG-4\nFormat profile : Base Media / Version 2\nCodec ID : mp42\nFile size : 800 MiB\nDuration : 1h 32mn\nOverall bit rate : 1 206 Kbps\nEncoded date : UTC 2009-10-26 07:06:54\nTagged date : UTC 2009-10-26 11:31:25\nWriting application : HandBrake 0.9.3 2008112300\n\nVideo\nID : 1\nFormat : AVC\nFormat/Info : Advanced Video Codec\nFormat profile : &lt;a class=&quot;__cf_email__&quot; href=&quot;/cdn-cgi/l/email-protection&quot; data-cfemail=&quot;3a775b53547a760e140a&quot;&gt;[email&amp;#160;protected]&lt;/a&gt;&lt;script cf-hash='f9e31' type=&quot;text/javascript&quot;&gt;\n/* &lt;![CDATA[ */!function(){try{var t=&quot;currentScript&quot;in document?document.currentScript:function(){for(var t=document.getElementsByTagName(&quot;script&quot;),e=t.length;e--;)if(t[e].getAttribute(&quot;cf-hash&quot;))return t[e]}();if(t&amp;&amp;t.previousSibling){var e,r,n,i,c=t.previousSibling,a=c.getAttribute(&quot;data-cfemail&quot;);if(a){for(e=&quot;&quot;,r=parseInt(a.substr(0,2),16),n=2;a.length-n;n+=2)i=parseInt(a.substr(n,2),16)^r,e+=String.fromCharCode(i);e=document.createTextNode(e),c.parentNode.replaceChild(e,c)}}}catch(u){}}();/* ]]&gt; */&lt;/script&gt;\nFormat settings, CABAC : Yes\nFormat settings, ReFrames : 3 frames\nCodec ID : avc1\nCodec ID/Info : Advanced Video Coding\nDuration : 1h 32mn\nBit rate mode : Variable\nBit rate : 1 042 Kbps\nWidth : 720 pixels\nHeight : 552 pixels\nDisplay aspect ratio : 1.855\nFrame rate mode : Variable\nFrame rate : 25.000 fps\nMinimum frame rate : 12.500 fps\nMaximum frame rate : 25.000 fps\nResolution : 24 bits\nColorimetry : 4:2:0\nScan type : Progressive\nBits/(Pixel*Frame) : 0.105\nStream size : 691 MiB (86%)\nWriting library : x264 core 65\n\n\nAudio\nID : 2\nFormat : AAC\nFormat/Info : Advanced Audio Codec\nFormat version : Version 4\nFormat profile : LC\nFormat settings, SBR : No\nCodec ID : 40\nDuration : 1h 32mn\nBit rate mode : Variable\nBit rate : 160 Kbps\nMaximum bit rate : 230 Kbps\nChannel(s) : 2 channels\nChannel positions : L R\nSampling rate : 48.0 KHz\nResolution : 16 bits\nStream size : 106 MiB (13%)\nLanguage : English\nEncoded date : UTC 2009-10-26 07:06:54\nTagged date : UTC 2009-10-26 11:31:16 ","torrent":{"xt":"urn:btih:2717b13a5ffeabd0c825ad827f445c9eb7135e5a","amp;dn":"ELF+THE+MOVIE-2003+IN+H.264+BY+WINKER","amp;tr":["udp%3A%2F%2Ftracker.openbittorrent.com%3A80","udp%3A%2F%2Fopen.demonii.com%3A1337","udp%3A%2F%2Ftracker.coppersurfer.tk%3A6969","udp%3A%2F%2Fexodus.desync.com%3A6969"],"infoHash":"2717b13a5ffeabd0c825ad827f445c9eb7135e5a","infoHashBuffer":{"type":"Buffer","data":[39,23,177,58,95,254,171,208,200,37,173,130,127,68,92,158,183,19,94,90]},"announce":[],"urlList":[]}}